STARTFONT 2.1
FONT -FontForge-Times Cyrillic-Normal-R-Normal--13-90-100-100-P-67-WinRoman-0
SIZE 9 100 100
FONTBOUNDINGBOX 13 16 0 -3
COMMENT "Generated by fontforge, http://fontforge.sourceforge.net"
COMMENT "Copyright (C) Steepler Ltd., 1990-92."
STARTPROPERTIES 34
FOUNDRY "FontForge"
FAMILY_NAME "Times Cyrillic"
WEIGHT_NAME "Normal"
SLANT "R"
SETWIDTH_NAME "Normal"
ADD_STYLE_NAME ""
PIXEL_SIZE 13
POINT_SIZE 90
RESOLUTION_X 100
RESOLUTION_Y 100
SPACING "P"
AVERAGE_WIDTH 67
CHARSET_REGISTRY "WinRoman"
CHARSET_ENCODING "0"
FONTNAME_REGISTRY ""
CHARSET_COLLECTIONS "WinRoman"
FONT_NAME "TimesCyrillic"
FACE_NAME "Times Cyrillic"
COPYRIGHT "Copyright (C) Steepler Ltd., 1990-92."
FONT_VERSION "001.000"
FONT_ASCENT 10
FONT_DESCENT 3
UNDERLINE_POSITION -1
UNDERLINE_THICKNESS 1
X_HEIGHT 6
CAP_HEIGHT 9
RAW_ASCENT 800
RAW_DESCENT 200
NORM_SPACE 3
RELATIVE_WEIGHT 40
RELATIVE_SETWIDTH 50
FIGURE_WIDTH 6
AVG_LOWERCASE_WIDTH 69
AVG_UPPERCASE_WIDTH 89
ENDPROPERTIES
CHARS 224
STARTCHAR space
ENCODING 32
SWIDTH 250 0
DWIDTH 3 0
BBX 1 1 2 -3
BITMAP
00
ENDCHAR
STARTCHAR exclam
ENCODING 33
SWIDTH 281 0
DWIDTH 3 0
BBX 1 10 1 0
BITMAP
80
80
80
80
80
80
80
00
00
80
ENDCHAR
STARTCHAR quotedbl
ENCODING 34
SWIDTH 375 0
DWIDTH 5 0
BBX 3 3 1 7
BITMAP
A0
A0
A0
ENDCHAR
STARTCHAR numbersign
ENCODING 35
SWIDTH 500 0
DWIDTH 7 0
BBX 7 10 0 0
BITMAP
14
14
14
7E
28
28
FC
50
50
50
ENDCHAR
STARTCHAR dollar
ENCODING 36
SWIDTH 500 0
DWIDTH 6 0
BBX 4 13 1 -2
BITMAP
20
20
60
90
90
80
60
10
10
90
60
40
40
ENDCHAR
STARTCHAR percent
ENCODING 37
SWIDTH 875 0
DWIDTH 12 0
BBX 10 10 1 0
BITMAP
6040
9080
9100
6200
0400
0800
1180
2240
4240
8180
ENDCHAR
STARTCHAR ampersand
ENCODING 38
SWIDTH 781 0
DWIDTH 10 0
BBX 8 10 1 0
BITMAP
20
50
50
50
27
52
8A
84
8A
71
ENDCHAR
STARTCHAR quotesingle
ENCODING 39
SWIDTH 281 0
DWIDTH 3 0
BBX 1 3 1 7
BITMAP
80
80
80
ENDCHAR
STARTCHAR parenleft
ENCODING 40
SWIDTH 344 0
DWIDTH 4 0
BBX 2 13 1 -3
BITMAP
40
40
80
80
80
80
80
80
80
80
80
40
40
ENDCHAR
STARTCHAR parenright
ENCODING 41
SWIDTH 344 0
DWIDTH 4 0
BBX 2 13 1 -3
BITMAP
80
80
40
40
40
40
40
40
40
40
40
80
80
ENDCHAR
STARTCHAR asterisk
ENCODING 42
SWIDTH 500 0
DWIDTH 7 0
BBX 5 5 1 5
BITMAP
20
A8
70
A8
20
ENDCHAR
STARTCHAR plus
ENCODING 43
SWIDTH 562 0
DWIDTH 7 0
BBX 5 5 1 2
BITMAP
20
20
F8
20
20
ENDCHAR
STARTCHAR comma
ENCODING 44
SWIDTH 250 0
DWIDTH 3 0
BBX 2 3 0 -2
BITMAP
40
40
80
ENDCHAR
STARTCHAR hyphen
ENCODING 45
SWIDTH 312 0
DWIDTH 4 0
BBX 4 1 0 4
BITMAP
F0
ENDCHAR
STARTCHAR period
ENCODING 46
SWIDTH 250 0
DWIDTH 3 0
BBX 1 1 1 0
BITMAP
80
ENDCHAR
STARTCHAR slash
ENCODING 47
SWIDTH 250 0
DWIDTH 4 0
BBX 4 12 0 -2
BITMAP
10
10
10
20
20
20
40
40
40
80
80
80
ENDCHAR
STARTCHAR zero
ENCODING 48
SWIDTH 500 0
DWIDTH 6 0
BBX 4 10 1 0
BITMAP
60
90
90
90
90
90
90
90
90
60
ENDCHAR
STARTCHAR one
ENCODING 49
SWIDTH 500 0
DWIDTH 6 0
BBX 3 10 2 0
BITMAP
40
C0
40
40
40
40
40
40
40
E0
ENDCHAR
STARTCHAR two
ENCODING 50
SWIDTH 500 0
DWIDTH 6 0
BBX 4 10 1 0
BITMAP
60
90
10
10
20
20
40
40
90
F0
ENDCHAR
STARTCHAR three
ENCODING 51
SWIDTH 500 0
DWIDTH 6 0
BBX 4 10 1 0
BITMAP
60
90
10
10
60
10
10
10
90
60
ENDCHAR
STARTCHAR four
ENCODING 52
SWIDTH 500 0
DWIDTH 6 0
BBX 4 10 1 0
BITMAP
10
30
30
50
50
90
F0
10
10
10
ENDCHAR
STARTCHAR five
ENCODING 53
SWIDTH 500 0
DWIDTH 6 0
BBX 4 10 1 0
BITMAP
F0
80
80
80
E0
10
10
10
90
60
ENDCHAR
STARTCHAR six
ENCODING 54
SWIDTH 500 0
DWIDTH 6 0
BBX 4 10 1 0
BITMAP
30
40
80
80
E0
90
90
90
90
60
ENDCHAR
STARTCHAR seven
ENCODING 55
SWIDTH 500 0
DWIDTH 6 0
BBX 4 10 1 0
BITMAP
F0
90
10
20
20
20
40
40
40
40
ENDCHAR
STARTCHAR eight
ENCODING 56
SWIDTH 500 0
DWIDTH 6 0
BBX 4 10 1 0
BITMAP
60
90
90
90
60
90
90
90
90
60
ENDCHAR
STARTCHAR nine
ENCODING 57
SWIDTH 500 0
DWIDTH 6 0
BBX 4 10 1 0
BITMAP
60
90
90
90
90
70
10
10
20
C0
ENDCHAR
STARTCHAR colon
ENCODING 58
SWIDTH 250 0
DWIDTH 3 0
BBX 1 6 1 0
BITMAP
80
00
00
00
00
80
ENDCHAR
STARTCHAR semicolon
ENCODING 59
SWIDTH 250 0
DWIDTH 3 0
BBX 2 8 0 -2
BITMAP
40
00
00
00
00
40
40
80
ENDCHAR
STARTCHAR less
ENCODING 60
SWIDTH 562 0
DWIDTH 7 0
BBX 5 9 1 0
BITMAP
08
10
20
40
80
40
20
10
08
ENDCHAR
STARTCHAR equal
ENCODING 61
SWIDTH 562 0
DWIDTH 7 0
BBX 5 4 1 3
BITMAP
F8
00
00
F8
ENDCHAR
STARTCHAR greater
ENCODING 62
SWIDTH 562 0
DWIDTH 7 0
BBX 5 9 1 0
BITMAP
80
40
20
10
08
10
20
40
80
ENDCHAR
STARTCHAR question
ENCODING 63
SWIDTH 438 0
DWIDTH 6 0
BBX 4 10 1 0
BITMAP
60
90
10
10
20
40
40
00
00
40
ENDCHAR
STARTCHAR at
ENCODING 64
SWIDTH 906 0
DWIDTH 12 0
BBX 10 10 1 0
BITMAP
3F00
4080
8E40
9240
9240
9240
9240
8E40
4180
3800
ENDCHAR
STARTCHAR A
ENCODING 65
SWIDTH 688 0
DWIDTH 9 0
BBX 9 10 0 0
BITMAP
0800
0800
1400
1400
2200
2200
3E00
4100
4100
E380
ENDCHAR
STARTCHAR B
ENCODING 66
SWIDTH 656 0
DWIDTH 9 0
BBX 7 10 1 0
BITMAP
FC
42
42
42
7C
42
42
42
42
FC
ENDCHAR
STARTCHAR C
ENCODING 67
SWIDTH 656 0
DWIDTH 10 0
BBX 8 10 1 0
BITMAP
3D
43
81
80
80
80
80
81
42
3C
ENDCHAR
STARTCHAR D
ENCODING 68
SWIDTH 688 0
DWIDTH 10 0
BBX 8 10 1 0
BITMAP
F8
46
42
41
41
41
41
42
46
F8
ENDCHAR
STARTCHAR E
ENCODING 69
SWIDTH 625 0
DWIDTH 8 0
BBX 6 10 1 0
BITMAP
FC
44
40
48
78
48
40
40
44
FC
ENDCHAR
STARTCHAR F
ENCODING 70
SWIDTH 562 0
DWIDTH 8 0
BBX 6 10 1 0
BITMAP
FC
44
40
48
78
48
40
40
40
E0
ENDCHAR
STARTCHAR G
ENCODING 71
SWIDTH 719 0
DWIDTH 10 0
BBX 9 10 1 0
BITMAP
3D00
4300
8100
8000
8000
8380
8100
8100
4100
3E00
ENDCHAR
STARTCHAR H
ENCODING 72
SWIDTH 719 0
DWIDTH 10 0
BBX 8 10 1 0
BITMAP
E7
42
42
42
7E
42
42
42
42
E7
ENDCHAR
STARTCHAR I
ENCODING 73
SWIDTH 344 0
DWIDTH 5 0
BBX 3 10 1 0
BITMAP
E0
40
40
40
40
40
40
40
40
E0
ENDCHAR
STARTCHAR J
ENCODING 74
SWIDTH 406 0
DWIDTH 7 0
BBX 5 10 1 0
BITMAP
38
10
10
10
10
10
10
10
90
E0
ENDCHAR
STARTCHAR K
ENCODING 75
SWIDTH 688 0
DWIDTH 9 0
BBX 8 10 1 0
BITMAP
EE
44
48
50
60
50
48
44
42
E7
ENDCHAR
STARTCHAR L
ENCODING 76
SWIDTH 625 0
DWIDTH 9 0
BBX 7 10 1 0
BITMAP
E0
40
40
40
40
40
40
40
42
FE
ENDCHAR
STARTCHAR M
ENCODING 77
SWIDTH 875 0
DWIDTH 11 0
BBX 9 10 1 0
BITMAP
C180
6300
6300
6300
5500
5500
5500
4900
4900
EB80
ENDCHAR
STARTCHAR N
ENCODING 78
SWIDTH 719 0
DWIDTH 10 0
BBX 8 10 1 0
BITMAP
C7
62
62
52
52
4A
4A
46
46
E2
ENDCHAR
STARTCHAR O
ENCODING 79
SWIDTH 656 0
DWIDTH 10 0
BBX 8 10 1 0
BITMAP
3C
42
81
81
81
81
81
81
42
3C
ENDCHAR
STARTCHAR P
ENCODING 80
SWIDTH 594 0
DWIDTH 8 0
BBX 6 10 1 0
BITMAP
F8
44
44
44
44
78
40
40
40
E0
ENDCHAR
STARTCHAR Q
ENCODING 81
SWIDTH 656 0
DWIDTH 10 0
BBX 8 12 1 -2
BITMAP
3C
42
81
81
81
81
81
81
42
3C
0C
06
ENDCHAR
STARTCHAR R
ENCODING 82
SWIDTH 656 0
DWIDTH 10 0
BBX 8 10 1 0
BITMAP
F8
44
44
44
44
78
48
44
42
E3
ENDCHAR
STARTCHAR S
ENCODING 83
SWIDTH 500 0
DWIDTH 7 0
BBX 5 10 1 0
BITMAP
68
98
88
80
60
10
08
88
C8
B0
ENDCHAR
STARTCHAR T
ENCODING 84
SWIDTH 656 0
DWIDTH 11 0
BBX 9 10 1 0
BITMAP
FF80
8880
0800
0800
0800
0800
0800
0800
0800
1C00
ENDCHAR
STARTCHAR U
ENCODING 85
SWIDTH 719 0
DWIDTH 10 0
BBX 8 10 1 0
BITMAP
E7
42
42
42
42
42
42
42
42
3C
ENDCHAR
STARTCHAR V
ENCODING 86
SWIDTH 688 0
DWIDTH 9 0
BBX 9 10 0 0
BITMAP
E380
4100
4100
2200
2200
1400
1400
1400
0800
0800
ENDCHAR
STARTCHAR W
ENCODING 87
SWIDTH 1031 0
DWIDTH 13 0
BBX 13 10 0 0
BITMAP
EDB8
4510
4510
2220
2220
1540
1540
1540
0880
0880
ENDCHAR
STARTCHAR X
ENCODING 88
SWIDTH 719 0
DWIDTH 10 0
BBX 10 10 0 0
BITMAP
E1C0
4080
2100
1200
0C00
0C00
1200
2100
4080
E1C0
ENDCHAR
STARTCHAR Y
ENCODING 89
SWIDTH 688 0
DWIDTH 9 0
BBX 9 10 0 0
BITMAP
E380
4100
2200
2200
1400
0800
0800
0800
0800
1C00
ENDCHAR
STARTCHAR Z
ENCODING 90
SWIDTH 656 0
DWIDTH 8 0
BBX 8 10 0 0
BITMAP
FF
82
04
04
08
10
20
20
41
FF
ENDCHAR
STARTCHAR bracketleft
ENCODING 91
SWIDTH 344 0
DWIDTH 4 0
BBX 2 13 1 -3
BITMAP
C0
80
80
80
80
80
80
80
80
80
80
80
C0
ENDCHAR
STARTCHAR backslash
ENCODING 92
SWIDTH 250 0
DWIDTH 4 0
BBX 4 12 0 -2
BITMAP
80
80
80
40
40
40
20
20
20
10
10
10
ENDCHAR
STARTCHAR bracketright
ENCODING 93
SWIDTH 344 0
DWIDTH 4 0
BBX 2 13 1 -3
BITMAP
C0
40
40
40
40
40
40
40
40
40
40
40
C0
ENDCHAR
STARTCHAR asciicircum
ENCODING 94
SWIDTH 500 0
DWIDTH 7 0
BBX 5 3 1 8
BITMAP
20
50
88
ENDCHAR
STARTCHAR underscore
ENCODING 95
SWIDTH 500 0
DWIDTH 6 0
BBX 6 1 0 -3
BITMAP
FC
ENDCHAR
STARTCHAR grave
ENCODING 96
SWIDTH 344 0
DWIDTH 4 0
BBX 3 3 0 8
BITMAP
80
40
20
ENDCHAR
STARTCHAR a
ENCODING 97
SWIDTH 438 0
DWIDTH 6 0
BBX 5 7 1 0
BITMAP
60
10
70
90
90
90
68
ENDCHAR
STARTCHAR b
ENCODING 98
SWIDTH 531 0
DWIDTH 7 0
BBX 6 10 1 0
BITMAP
C0
40
40
58
64
44
44
44
44
38
ENDCHAR
STARTCHAR c
ENCODING 99
SWIDTH 438 0
DWIDTH 6 0
BBX 5 7 1 0
BITMAP
70
88
80
80
80
88
70
ENDCHAR
STARTCHAR d
ENCODING 100
SWIDTH 531 0
DWIDTH 6 0
BBX 5 10 1 0
BITMAP
18
08
08
78
88
88
88
88
88
78
ENDCHAR
STARTCHAR e
ENCODING 101
SWIDTH 438 0
DWIDTH 6 0
BBX 5 7 1 0
BITMAP
70
88
88
F8
80
88
70
ENDCHAR
STARTCHAR f
ENCODING 102
SWIDTH 375 0
DWIDTH 5 0
BBX 4 10 1 0
BITMAP
30
40
40
E0
40
40
40
40
40
60
ENDCHAR
STARTCHAR g
ENCODING 103
SWIDTH 469 0
DWIDTH 7 0
BBX 6 10 1 -3
BITMAP
7C
88
88
88
70
80
78
84
84
78
ENDCHAR
STARTCHAR h
ENCODING 104
SWIDTH 531 0
DWIDTH 7 0
BBX 7 10 0 0
BITMAP
C0
40
40
58
64
44
44
44
44
66
ENDCHAR
STARTCHAR i
ENCODING 105
SWIDTH 281 0
DWIDTH 4 0
BBX 3 10 1 0
BITMAP
40
00
00
C0
40
40
40
40
40
60
ENDCHAR
STARTCHAR j
ENCODING 106
SWIDTH 281 0
DWIDTH 4 0
BBX 2 13 1 -3
BITMAP
40
00
00
C0
40
40
40
40
40
40
40
40
80
ENDCHAR
STARTCHAR k
ENCODING 107
SWIDTH 500 0
DWIDTH 7 0
BBX 7 10 0 0
BITMAP
C0
40
40
4C
48
50
70
48
44
66
ENDCHAR
STARTCHAR l
ENCODING 108
SWIDTH 281 0
DWIDTH 3 0
BBX 3 10 0 0
BITMAP
C0
40
40
40
40
40
40
40
40
60
ENDCHAR
STARTCHAR m
ENCODING 109
SWIDTH 750 0
DWIDTH 9 0
BBX 9 7 0 0
BITMAP
D200
6D00
4900
4900
4900
4900
6D80
ENDCHAR
STARTCHAR n
ENCODING 110
SWIDTH 500 0
DWIDTH 7 0
BBX 7 7 0 0
BITMAP
D8
64
44
44
44
44
66
ENDCHAR
STARTCHAR o
ENCODING 111
SWIDTH 500 0
DWIDTH 6 0
BBX 5 7 1 0
BITMAP
70
88
88
88
88
88
70
ENDCHAR
STARTCHAR p
ENCODING 112
SWIDTH 531 0
DWIDTH 7 0
BBX 6 10 1 -3
BITMAP
D8
64
44
44
44
44
78
40
40
E0
ENDCHAR
STARTCHAR q
ENCODING 113
SWIDTH 500 0
DWIDTH 7 0
BBX 6 10 1 -3
BITMAP
78
88
88
88
88
88
78
08
08
1C
ENDCHAR
STARTCHAR r
ENCODING 114
SWIDTH 406 0
DWIDTH 5 0
BBX 4 7 1 0
BITMAP
D0
60
40
40
40
40
60
ENDCHAR
STARTCHAR s
ENCODING 115
SWIDTH 406 0
DWIDTH 4 0
BBX 3 7 1 0
BITMAP
60
80
80
40
20
20
C0
ENDCHAR
STARTCHAR t
ENCODING 116
SWIDTH 281 0
DWIDTH 4 0
BBX 3 9 1 0
BITMAP
40
40
E0
40
40
40
40
40
20
ENDCHAR
STARTCHAR u
ENCODING 117
SWIDTH 500 0
DWIDTH 7 0
BBX 7 7 0 0
BITMAP
CC
44
44
44
44
4C
36
ENDCHAR
STARTCHAR v
ENCODING 118
SWIDTH 562 0
DWIDTH 7 0
BBX 7 7 0 0
BITMAP
EE
44
44
28
28
10
10
ENDCHAR
STARTCHAR w
ENCODING 119
SWIDTH 812 0
DWIDTH 9 0
BBX 9 7 0 0
BITMAP
DD80
8880
8880
5500
5500
2200
2200
ENDCHAR
STARTCHAR x
ENCODING 120
SWIDTH 500 0
DWIDTH 7 0
BBX 7 7 0 0
BITMAP
EE
44
28
10
28
44
EE
ENDCHAR
STARTCHAR y
ENCODING 121
SWIDTH 562 0
DWIDTH 7 0
BBX 7 10 0 -3
BITMAP
EE
44
44
28
28
10
10
20
A0
C0
ENDCHAR
STARTCHAR z
ENCODING 122
SWIDTH 469 0
DWIDTH 6 0
BBX 5 7 1 0
BITMAP
F8
88
10
20
40
88
F8
ENDCHAR
STARTCHAR braceleft
ENCODING 123
SWIDTH 406 0
DWIDTH 5 0
BBX 3 13 1 -3
BITMAP
20
40
40
40
40
40
80
40
40
40
40
40
20
ENDCHAR
STARTCHAR bar
ENCODING 124
SWIDTH 281 0
DWIDTH 3 0
BBX 1 13 1 -3
BITMAP
80
80
80
80
80
80
80
80
80
80
80
80
80
ENDCHAR
STARTCHAR braceright
ENCODING 125
SWIDTH 406 0
DWIDTH 5 0
BBX 3 13 1 -3
BITMAP
80
40
40
40
40
40
20
40
40
40
40
40
80
ENDCHAR
STARTCHAR asciitilde
ENCODING 126
SWIDTH 500 0
DWIDTH 8 0
BBX 6 2 1 8
BITMAP
64
98
ENDCHAR
STARTCHAR uni007F
ENCODING 127
SWIDTH 344 0
DWIDTH 4 0
BBX 2 9 1 0
BITMAP
C0
C0
C0
C0
C0
C0
C0
C0
C0
ENDCHAR
STARTCHAR Euro
ENCODING 128
SWIDTH 344 0
DWIDTH 4 0
BBX 2 9 1 0
BITMAP
C0
C0
C0
C0
C0
C0
C0
C0
C0
ENDCHAR
STARTCHAR NameMe.129
ENCODING 129
SWIDTH 344 0
DWIDTH 4 0
BBX 2 9 1 0
BITMAP
C0
C0
C0
C0
C0
C0
C0
C0
C0
ENDCHAR
STARTCHAR quotesinglbase
ENCODING 130
SWIDTH 344 0
DWIDTH 4 0
BBX 2 9 1 0
BITMAP
C0
C0
C0
C0
C0
C0
C0
C0
C0
ENDCHAR
STARTCHAR florin
ENCODING 131
SWIDTH 344 0
DWIDTH 4 0
BBX 2 9 1 0
BITMAP
C0
C0
C0
C0
C0
C0
C0
C0
C0
ENDCHAR
STARTCHAR quotedblbase
ENCODING 132
SWIDTH 344 0
DWIDTH 4 0
BBX 2 9 1 0
BITMAP
C0
C0
C0
C0
C0
C0
C0
C0
C0
ENDCHAR
STARTCHAR ellipsis
ENCODING 133
SWIDTH 344 0
DWIDTH 4 0
BBX 2 9 1 0
BITMAP
C0
C0
C0
C0
C0
C0
C0
C0
C0
ENDCHAR
STARTCHAR dagger
ENCODING 134
SWIDTH 344 0
DWIDTH 4 0
BBX 2 9 1 0
BITMAP
C0
C0
C0
C0
C0
C0
C0
C0
C0
ENDCHAR
STARTCHAR daggerdbl
ENCODING 135
SWIDTH 344 0
DWIDTH 4 0
BBX 2 9 1 0
BITMAP
C0
C0
C0
C0
C0
C0
C0
C0
C0
ENDCHAR
STARTCHAR circumflex
ENCODING 136
SWIDTH 344 0
DWIDTH 4 0
BBX 2 9 1 0
BITMAP
C0
C0
C0
C0
C0
C0
C0
C0
C0
ENDCHAR
STARTCHAR perthousand
ENCODING 137
SWIDTH 344 0
DWIDTH 4 0
BBX 2 9 1 0
BITMAP
C0
C0
C0
C0
C0
C0
C0
C0
C0
ENDCHAR
STARTCHAR Scaron
ENCODING 138
SWIDTH 344 0
DWIDTH 4 0
BBX 2 9 1 0
BITMAP
C0
C0
C0
C0
C0
C0
C0
C0
C0
ENDCHAR
STARTCHAR guilsinglleft
ENCODING 139
SWIDTH 344 0
DWIDTH 4 0
BBX 2 9 1 0
BITMAP
C0
C0
C0
C0
C0
C0
C0
C0
C0
ENDCHAR
STARTCHAR OE
ENCODING 140
SWIDTH 344 0
DWIDTH 4 0
BBX 2 9 1 0
BITMAP
C0
C0
C0
C0
C0
C0
C0
C0
C0
ENDCHAR
STARTCHAR NameMe.141
ENCODING 141
SWIDTH 344 0
DWIDTH 4 0
BBX 2 9 1 0
BITMAP
C0
C0
C0
C0
C0
C0
C0
C0
C0
ENDCHAR
STARTCHAR Zcaron
ENCODING 142
SWIDTH 344 0
DWIDTH 4 0
BBX 2 9 1 0
BITMAP
C0
C0
C0
C0
C0
C0
C0
C0
C0
ENDCHAR
STARTCHAR NameMe.143
ENCODING 143
SWIDTH 344 0
DWIDTH 4 0
BBX 2 9 1 0
BITMAP
C0
C0
C0
C0
C0
C0
C0
C0
C0
ENDCHAR
STARTCHAR NameMe.144
ENCODING 144
SWIDTH 344 0
DWIDTH 4 0
BBX 2 9 1 0
BITMAP
C0
C0
C0
C0
C0
C0
C0
C0
C0
ENDCHAR
STARTCHAR quoteleft
ENCODING 145
SWIDTH 250 0
DWIDTH 3 0
BBX 2 3 1 7
BITMAP
40
80
80
ENDCHAR
STARTCHAR quoteright
ENCODING 146
SWIDTH 250 0
DWIDTH 3 0
BBX 2 3 0 7
BITMAP
40
40
80
ENDCHAR
STARTCHAR quotedblleft
ENCODING 147
SWIDTH 344 0
DWIDTH 4 0
BBX 2 9 1 0
BITMAP
C0
C0
C0
C0
C0
C0
C0
C0
C0
ENDCHAR
STARTCHAR quotedblright
ENCODING 148
SWIDTH 344 0
DWIDTH 4 0
BBX 2 9 1 0
BITMAP
C0
C0
C0
C0
C0
C0
C0
C0
C0
ENDCHAR
STARTCHAR bullet
ENCODING 149
SWIDTH 344 0
DWIDTH 4 0
BBX 2 9 1 0
BITMAP
C0
C0
C0
C0
C0
C0
C0
C0
C0
ENDCHAR
STARTCHAR endash
ENCODING 150
SWIDTH 344 0
DWIDTH 4 0
BBX 2 9 1 0
BITMAP
C0
C0
C0
C0
C0
C0
C0
C0
C0
ENDCHAR
STARTCHAR emdash
ENCODING 151
SWIDTH 344 0
DWIDTH 4 0
BBX 2 9 1 0
BITMAP
C0
C0
C0
C0
C0
C0
C0
C0
C0
ENDCHAR
STARTCHAR tilde
ENCODING 152
SWIDTH 344 0
DWIDTH 4 0
BBX 2 9 1 0
BITMAP
C0
C0
C0
C0
C0
C0
C0
C0
C0
ENDCHAR
STARTCHAR trademark
ENCODING 153
SWIDTH 344 0
DWIDTH 4 0
BBX 2 9 1 0
BITMAP
C0
C0
C0
C0
C0
C0
C0
C0
C0
ENDCHAR
STARTCHAR scaron
ENCODING 154
SWIDTH 344 0
DWIDTH 4 0
BBX 2 9 1 0
BITMAP
C0
C0
C0
C0
C0
C0
C0
C0
C0
ENDCHAR
STARTCHAR guilsinglright
ENCODING 155
SWIDTH 344 0
DWIDTH 4 0
BBX 2 9 1 0
BITMAP
C0
C0
C0
C0
C0
C0
C0
C0
C0
ENDCHAR
STARTCHAR oe
ENCODING 156
SWIDTH 344 0
DWIDTH 4 0
BBX 2 9 1 0
BITMAP
C0
C0
C0
C0
C0
C0
C0
C0
C0
ENDCHAR
STARTCHAR NameMe.157
ENCODING 157
SWIDTH 344 0
DWIDTH 4 0
BBX 2 9 1 0
BITMAP
C0
C0
C0
C0
C0
C0
C0
C0
C0
ENDCHAR
STARTCHAR zcaron
ENCODING 158
SWIDTH 344 0
DWIDTH 4 0
BBX 2 9 1 0
BITMAP
C0
C0
C0
C0
C0
C0
C0
C0
C0
ENDCHAR
STARTCHAR Ydieresis
ENCODING 159
SWIDTH 344 0
DWIDTH 4 0
BBX 2 9 1 0
BITMAP
C0
C0
C0
C0
C0
C0
C0
C0
C0
ENDCHAR
STARTCHAR uni00A0
ENCODING 160
SWIDTH 250 0
DWIDTH 3 0
BBX 1 1 2 -3
BITMAP
00
ENDCHAR
STARTCHAR exclamdown
ENCODING 161
SWIDTH 625 0
DWIDTH 8 0
BBX 6 12 1 0
BITMAP
6C
00
FC
44
40
48
78
48
40
40
44
FC
ENDCHAR
STARTCHAR cent
ENCODING 162
SWIDTH 500 0
DWIDTH 6 0
BBX 5 8 1 -1
BITMAP
08
70
98
A0
A0
C8
70
80
ENDCHAR
STARTCHAR sterling
ENCODING 163
SWIDTH 500 0
DWIDTH 6 0
BBX 5 10 1 0
BITMAP
60
90
80
80
40
F0
40
40
48
B0
ENDCHAR
STARTCHAR currency
ENCODING 164
SWIDTH 500 0
DWIDTH 6 0
BBX 6 4 0 6
BITMAP
B4
48
48
B4
ENDCHAR
STARTCHAR yen
ENCODING 165
SWIDTH 531 0
DWIDTH 6 0
BBX 6 10 0 0
BITMAP
DC
88
F8
50
F8
20
20
20
20
70
ENDCHAR
STARTCHAR brokenbar
ENCODING 166
SWIDTH 281 0
DWIDTH 3 0
BBX 1 13 1 -3
BITMAP
80
80
80
80
80
00
00
00
80
80
80
80
80
ENDCHAR
STARTCHAR section
ENCODING 167
SWIDTH 500 0
DWIDTH 6 0
BBX 4 12 1 -2
BITMAP
60
90
80
40
A0
90
90
50
20
10
90
60
ENDCHAR
STARTCHAR dieresis
ENCODING 168
SWIDTH 344 0
DWIDTH 5 0
BBX 3 1 1 9
BITMAP
A0
ENDCHAR
STARTCHAR copyright
ENCODING 169
SWIDTH 750 0
DWIDTH 11 0
BBX 9 10 1 0
BITMAP
3E00
4100
9C80
A280
A080
A080
A280
9C80
4100
3E00
ENDCHAR
STARTCHAR ordfeminine
ENCODING 170
SWIDTH 281 0
DWIDTH 4 0
BBX 2 6 1 4
BITMAP
80
40
C0
C0
00
C0
ENDCHAR
STARTCHAR guillemotleft
ENCODING 171
SWIDTH 500 0
DWIDTH 7 0
BBX 5 5 1 0
BITMAP
28
50
A0
50
28
ENDCHAR
STARTCHAR logicalnot
ENCODING 172
SWIDTH 562 0
DWIDTH 7 0
BBX 5 2 1 4
BITMAP
F8
08
ENDCHAR
STARTCHAR uni00AD
ENCODING 173
SWIDTH 312 0
DWIDTH 4 0
BBX 4 1 0 4
BITMAP
F0
ENDCHAR
STARTCHAR registered
ENCODING 174
SWIDTH 750 0
DWIDTH 11 0
BBX 9 10 1 0
BITMAP
3E00
4100
BC80
A280
A280
BC80
A480
A280
4100
3E00
ENDCHAR
STARTCHAR macron
ENCODING 175
SWIDTH 500 0
DWIDTH 6 0
BBX 6 1 0 12
BITMAP
FC
ENDCHAR
STARTCHAR degree
ENCODING 176
SWIDTH 344 0
DWIDTH 4 0
BBX 3 3 1 7
BITMAP
40
A0
40
ENDCHAR
STARTCHAR plusminus
ENCODING 177
SWIDTH 562 0
DWIDTH 7 0
BBX 5 8 1 0
BITMAP
20
20
F8
20
20
00
00
F8
ENDCHAR
STARTCHAR uni00B2
ENCODING 178
SWIDTH 250 0
DWIDTH 3 0
BBX 3 6 0 4
BITMAP
40
A0
20
40
80
E0
ENDCHAR
STARTCHAR uni00B3
ENCODING 179
SWIDTH 250 0
DWIDTH 3 0
BBX 3 6 0 4
BITMAP
C0
20
40
20
20
C0
ENDCHAR
STARTCHAR acute
ENCODING 180
SWIDTH 344 0
DWIDTH 4 0
BBX 3 3 1 8
BITMAP
20
40
80
ENDCHAR
STARTCHAR mu
ENCODING 181
SWIDTH 500 0
DWIDTH 8 0
BBX 7 9 1 -3
BITMAP
88
88
88
88
88
F6
80
80
80
ENDCHAR
STARTCHAR paragraph
ENCODING 182
SWIDTH 469 0
DWIDTH 6 0
BBX 4 10 1 0
BITMAP
70
F0
F0
F0
70
10
10
10
10
10
ENDCHAR
STARTCHAR periodcentered
ENCODING 183
SWIDTH 250 0
DWIDTH 3 0
BBX 1 1 1 4
BITMAP
80
ENDCHAR
STARTCHAR cedilla
ENCODING 184
SWIDTH 344 0
DWIDTH 4 0
BBX 2 3 1 -2
BITMAP
80
40
80
ENDCHAR
STARTCHAR uni00B9
ENCODING 185
SWIDTH 250 0
DWIDTH 3 0
BBX 3 6 0 4
BITMAP
40
C0
40
40
40
E0
ENDCHAR
STARTCHAR ordmasculine
ENCODING 186
SWIDTH 281 0
DWIDTH 4 0
BBX 2 6 1 4
BITMAP
C0
C0
C0
C0
00
C0
ENDCHAR
STARTCHAR guillemotright
ENCODING 187
SWIDTH 500 0
DWIDTH 7 0
BBX 5 5 1 0
BITMAP
A0
50
28
50
A0
ENDCHAR
STARTCHAR onequarter
ENCODING 188
SWIDTH 688 0
DWIDTH 9 0
BBX 9 10 0 0
BITMAP
4080
C100
4200
4400
4880
E980
1280
2280
4380
8080
ENDCHAR
STARTCHAR onehalf
ENCODING 189
SWIDTH 688 0
DWIDTH 9 0
BBX 9 10 0 0
BITMAP
4080
C100
4200
4400
4900
EA80
1080
2100
4200
8380
ENDCHAR
STARTCHAR threequarters
ENCODING 190
SWIDTH 688 0
DWIDTH 9 0
BBX 9 10 0 0
BITMAP
C080
2100
4200
2400
2880
C980
1280
2280
4380
8080
ENDCHAR
STARTCHAR questiondown
ENCODING 191
SWIDTH 438 0
DWIDTH 7 0
BBX 5 9 1 0
BITMAP
D8
00
70
88
88
F8
80
88
70
ENDCHAR
STARTCHAR Agrave
ENCODING 192
SWIDTH 688 0
DWIDTH 9 0
BBX 9 10 0 0
BITMAP
0800
0800
1400
1400
2200
2200
3E00
4100
4100
E380
ENDCHAR
STARTCHAR Aacute
ENCODING 193
SWIDTH 656 0
DWIDTH 8 0
BBX 7 10 1 0
BITMAP
FE
42
40
40
7C
42
42
42
42
FC
ENDCHAR
STARTCHAR Acircumflex
ENCODING 194
SWIDTH 656 0
DWIDTH 8 0
BBX 7 10 1 0
BITMAP
FC
42
42
42
7C
42
42
42
42
FC
ENDCHAR
STARTCHAR Atilde
ENCODING 195
SWIDTH 594 0
DWIDTH 8 0
BBX 7 10 1 0
BITMAP
FE
42
40
40
40
40
40
40
40
E0
ENDCHAR
STARTCHAR Adieresis
ENCODING 196
SWIDTH 750 0
DWIDTH 9 0
BBX 8 12 1 -2
BITMAP
7F
22
22
22
22
22
22
22
42
FF
81
81
ENDCHAR
STARTCHAR Aring
ENCODING 197
SWIDTH 625 0
DWIDTH 7 0
BBX 6 10 1 0
BITMAP
FC
44
40
48
78
48
40
40
44
FC
ENDCHAR
STARTCHAR AE
ENCODING 198
SWIDTH 1031 0
DWIDTH 12 0
BBX 11 10 1 0
BITMAP
EEE0
4440
2480
2480
1F00
2480
2480
4440
4440
EEE0
ENDCHAR
STARTCHAR Ccedilla
ENCODING 199
SWIDTH 656 0
DWIDTH 7 0
BBX 6 10 1 0
BITMAP
78
84
84
04
38
04
04
84
84
78
ENDCHAR
STARTCHAR Egrave
ENCODING 200
SWIDTH 750 0
DWIDTH 9 0
BBX 8 10 1 0
BITMAP
E7
42
46
4A
4A
52
52
62
42
E7
ENDCHAR
STARTCHAR Eacute
ENCODING 201
SWIDTH 750 0
DWIDTH 9 0
BBX 8 12 1 0
BITMAP
18
00
E7
42
46
4A
4A
52
52
62
42
E7
ENDCHAR
STARTCHAR Ecircumflex
ENCODING 202
SWIDTH 719 0
DWIDTH 8 0
BBX 7 10 1 0
BITMAP
EE
44
48
48
70
48
48
44
44
EE
ENDCHAR
STARTCHAR Edieresis
ENCODING 203
SWIDTH 812 0
DWIDTH 9 0
BBX 8 10 1 0
BITMAP
7F
22
22
22
22
22
22
22
22
C7
ENDCHAR
STARTCHAR Igrave
ENCODING 204
SWIDTH 875 0
DWIDTH 10 0
BBX 9 10 1 0
BITMAP
C180
6300
6300
6300
5500
5500
5500
4900
4900
EB80
ENDCHAR
STARTCHAR Iacute
ENCODING 205
SWIDTH 719 0
DWIDTH 9 0
BBX 8 10 1 0
BITMAP
E7
42
42
42
7E
42
42
42
42
E7
ENDCHAR
STARTCHAR Icircumflex
ENCODING 206
SWIDTH 656 0
DWIDTH 9 0
BBX 8 10 1 0
BITMAP
3C
42
81
81
81
81
81
81
42
3C
ENDCHAR
STARTCHAR Idieresis
ENCODING 207
SWIDTH 719 0
DWIDTH 9 0
BBX 8 10 1 0
BITMAP
FF
42
42
42
42
42
42
42
42
E7
ENDCHAR
STARTCHAR Eth
ENCODING 208
SWIDTH 594 0
DWIDTH 8 0
BBX 7 10 1 0
BITMAP
FC
42
42
42
42
7C
40
40
40
E0
ENDCHAR
STARTCHAR Ntilde
ENCODING 209
SWIDTH 656 0
DWIDTH 9 0
BBX 8 10 1 0
BITMAP
3D
43
81
80
80
80
80
81
42
3C
ENDCHAR
STARTCHAR Ograve
ENCODING 210
SWIDTH 656 0
DWIDTH 10 0
BBX 9 10 1 0
BITMAP
FF80
8880
0800
0800
0800
0800
0800
0800
0800
1C00
ENDCHAR
STARTCHAR Oacute
ENCODING 211
SWIDTH 688 0
DWIDTH 11 0
BBX 10 10 1 0
BITMAP
E1C0
4080
2100
1100
1200
0A00
0400
0400
0800
7000
ENDCHAR
STARTCHAR Ocircumflex
ENCODING 212
SWIDTH 781 0
DWIDTH 10 0
BBX 9 10 1 0
BITMAP
3E00
4900
8880
8880
8880
4900
3E00
0800
0800
1C00
ENDCHAR
STARTCHAR Otilde
ENCODING 213
SWIDTH 719 0
DWIDTH 11 0
BBX 10 10 1 0
BITMAP
E1C0
4080
2100
1200
0C00
0C00
1200
2100
4080
E1C0
ENDCHAR
STARTCHAR Odieresis
ENCODING 214
SWIDTH 719 0
DWIDTH 9 0
BBX 8 12 1 -2
BITMAP
E7
42
42
42
42
42
42
42
42
FF
01
01
ENDCHAR
STARTCHAR multiply
ENCODING 215
SWIDTH 719 0
DWIDTH 9 0
BBX 8 10 1 0
BITMAP
E7
42
42
42
42
3E
02
02
02
07
ENDCHAR
STARTCHAR Oslash
ENCODING 216
SWIDTH 1031 0
DWIDTH 12 0
BBX 11 10 1 0
BITMAP
EEE0
4440
4440
4440
4440
4440
4440
4440
4440
FFE0
ENDCHAR
STARTCHAR Ugrave
ENCODING 217
SWIDTH 1031 0
DWIDTH 12 0
BBX 11 12 1 -2
BITMAP
EEE0
4440
4440
4440
4440
4440
4440
4440
4440
FFE0
0020
0020
ENDCHAR
STARTCHAR Uacute
ENCODING 218
SWIDTH 750 0
DWIDTH 10 0
BBX 9 10 1 0
BITMAP
F800
9000
9000
1000
1F00
1080
1080
1080
1080
3F00
ENDCHAR
STARTCHAR Ucircumflex
ENCODING 219
SWIDTH 906 0
DWIDTH 11 0
BBX 10 10 1 0
BITMAP
E1C0
4080
4080
4080
7C80
4280
4280
4280
4280
FDC0
ENDCHAR
STARTCHAR Udieresis
ENCODING 220
SWIDTH 656 0
DWIDTH 8 0
BBX 7 10 1 0
BITMAP
E0
40
40
40
7C
42
42
42
42
FC
ENDCHAR
STARTCHAR Yacute
ENCODING 221
SWIDTH 656 0
DWIDTH 8 0
BBX 7 10 1 0
BITMAP
7C
82
82
02
3E
02
02
82
82
7C
ENDCHAR
STARTCHAR Thorn
ENCODING 222
SWIDTH 938 0
DWIDTH 13 0
BBX 12 10 1 0
BITMAP
E3C0
4420
4810
4810
7810
4810
4810
4810
4420
E3C0
ENDCHAR
STARTCHAR germandbls
ENCODING 223
SWIDTH 688 0
DWIDTH 10 0
BBX 8 10 2 0
BITMAP
3F
42
42
42
42
3E
12
22
42
C7
ENDCHAR
STARTCHAR agrave
ENCODING 224
SWIDTH 406 0
DWIDTH 7 0
BBX 6 7 1 0
BITMAP
70
08
78
88
88
88
74
ENDCHAR
STARTCHAR aacute
ENCODING 225
SWIDTH 469 0
DWIDTH 6 0
BBX 5 11 1 0
BITMAP
08
70
80
80
B0
C8
88
88
88
88
70
ENDCHAR
STARTCHAR acircumflex
ENCODING 226
SWIDTH 406 0
DWIDTH 7 0
BBX 6 7 1 0
BITMAP
F8
44
44
78
44
44
F8
ENDCHAR
STARTCHAR atilde
ENCODING 227
SWIDTH 438 0
DWIDTH 6 0
BBX 5 7 1 0
BITMAP
F8
48
40
40
40
40
E0
ENDCHAR
STARTCHAR adieresis
ENCODING 228
SWIDTH 500 0
DWIDTH 7 0
BBX 6 8 1 -1
BITMAP
7C
28
28
28
28
48
FC
84
ENDCHAR
STARTCHAR aring
ENCODING 229
SWIDTH 438 0
DWIDTH 6 0
BBX 5 7 1 0
BITMAP
70
88
88
F8
80
88
70
ENDCHAR
STARTCHAR ae
ENCODING 230
SWIDTH 844 0
DWIDTH 10 0
BBX 9 7 1 0
BITMAP
DD80
4900
2A00
3E00
4900
4900
DD80
ENDCHAR
STARTCHAR ccedilla
ENCODING 231
SWIDTH 406 0
DWIDTH 6 0
BBX 5 7 1 0
BITMAP
70
88
08
30
08
88
70
ENDCHAR
STARTCHAR egrave
ENCODING 232
SWIDTH 594 0
DWIDTH 8 0
BBX 7 7 1 0
BITMAP
EE
44
4C
54
64
44
EE
ENDCHAR
STARTCHAR eacute
ENCODING 233
SWIDTH 594 0
DWIDTH 8 0
BBX 7 9 1 0
BITMAP
38
00
EE
44
4C
54
64
44
EE
ENDCHAR
STARTCHAR ecircumflex
ENCODING 234
SWIDTH 531 0
DWIDTH 7 0
BBX 6 7 1 0
BITMAP
EC
48
50
70
48
48
EC
ENDCHAR
STARTCHAR edieresis
ENCODING 235
SWIDTH 594 0
DWIDTH 8 0
BBX 7 7 1 0
BITMAP
7E
24
24
24
24
24
CE
ENDCHAR
STARTCHAR igrave
ENCODING 236
SWIDTH 719 0
DWIDTH 10 0
BBX 9 7 1 0
BITMAP
C180
6300
6300
5500
5500
4900
E980
ENDCHAR
STARTCHAR iacute
ENCODING 237
SWIDTH 594 0
DWIDTH 8 0
BBX 7 7 1 0
BITMAP
EE
44
44
7C
44
44
EE
ENDCHAR
STARTCHAR icircumflex
ENCODING 238
SWIDTH 531 0
DWIDTH 6 0
BBX 5 7 1 0
BITMAP
70
88
88
88
88
88
70
ENDCHAR
STARTCHAR idieresis
ENCODING 239
SWIDTH 594 0
DWIDTH 8 0
BBX 7 7 1 0
BITMAP
FE
44
44
44
44
44
EE
ENDCHAR
STARTCHAR eth
ENCODING 240
SWIDTH 531 0
DWIDTH 7 0
BBX 6 10 1 -3
BITMAP
F8
44
44
44
44
44
78
40
40
E0
ENDCHAR
STARTCHAR ntilde
ENCODING 241
SWIDTH 438 0
DWIDTH 6 0
BBX 5 7 1 0
BITMAP
70
88
80
80
80
88
70
ENDCHAR
STARTCHAR ograve
ENCODING 242
SWIDTH 531 0
DWIDTH 8 0
BBX 7 7 1 0
BITMAP
FE
92
10
10
10
10
38
ENDCHAR
STARTCHAR oacute
ENCODING 243
SWIDTH 531 0
DWIDTH 8 0
BBX 7 10 1 -3
BITMAP
EE
44
44
28
28
10
10
20
A0
C0
ENDCHAR
STARTCHAR ocircumflex
ENCODING 244
SWIDTH 594 0
DWIDTH 8 0
BBX 7 10 1 -3
BITMAP
7C
92
92
92
92
92
7C
10
10
38
ENDCHAR
STARTCHAR otilde
ENCODING 245
SWIDTH 531 0
DWIDTH 8 0
BBX 7 7 1 0
BITMAP
EE
44
28
10
28
44
EE
ENDCHAR
STARTCHAR odieresis
ENCODING 246
SWIDTH 594 0
DWIDTH 8 0
BBX 7 9 1 -2
BITMAP
EE
44
44
44
44
44
FE
02
02
ENDCHAR
STARTCHAR divide
ENCODING 247
SWIDTH 594 0
DWIDTH 8 0
BBX 7 7 1 0
BITMAP
EE
44
44
3C
04
04
0E
ENDCHAR
STARTCHAR oslash
ENCODING 248
SWIDTH 844 0
DWIDTH 12 0
BBX 11 7 1 0
BITMAP
EEE0
4440
4440
4440
4440
4440
FFE0
ENDCHAR
STARTCHAR ugrave
ENCODING 249
SWIDTH 844 0
DWIDTH 12 0
BBX 11 9 1 -2
BITMAP
EEE0
4440
4440
4440
4440
4440
FFE0
0020
0020
ENDCHAR
STARTCHAR uacute
ENCODING 250
SWIDTH 562 0
DWIDTH 8 0
BBX 7 7 1 0
BITMAP
F0
A0
BC
22
22
22
7C
ENDCHAR
STARTCHAR ucircumflex
ENCODING 251
SWIDTH 688 0
DWIDTH 10 0
BBX 9 7 1 0
BITMAP
E380
4100
7900
4500
4500
4500
FB80
ENDCHAR
STARTCHAR udieresis
ENCODING 252
SWIDTH 469 0
DWIDTH 7 0
BBX 6 7 1 0
BITMAP
E0
40
78
44
44
44
F8
ENDCHAR
STARTCHAR yacute
ENCODING 253
SWIDTH 438 0
DWIDTH 6 0
BBX 5 7 1 0
BITMAP
70
88
08
38
08
88
70
ENDCHAR
STARTCHAR thorn
ENCODING 254
SWIDTH 750 0
DWIDTH 10 0
BBX 9 7 1 0
BITMAP
E700
4880
4880
7880
4880
4880
E700
ENDCHAR
STARTCHAR ydieresis
ENCODING 255
SWIDTH 594 0
DWIDTH 8 0
BBX 7 7 1 0
BITMAP
3E
44
44
3C
24
44
CE
ENDCHAR
ENDFONT
